<svg id="Capa_1" enable-background="new 0 0 512 512" height="512" viewBox="0 0 512 512" width="512" xmlns="http://www.w3.org/2000/svg"><g><g><g><path d="m443.543 187.543c0-103.442-83.747-187.324-187.138-187.543-102.863-.217-188.261 85.264-187.947 188.127.176 57.833 26.53 109.506 67.834 143.791 53.041 44.027 90.286 104.151 107.735 170.838 3.225 12.324 20.721 12.324 23.945 0l.326-1.244c17.306-66.138 54.308-125.752 107.027-169.277 41.664-34.398 68.218-86.444 68.218-144.692z" fill="#fe255f"/></g><g><path d="m443.54 187.54c0 58.25-26.55 110.3-68.21 144.7-52.72 43.52-89.73 103.13-107.03 169.27l-.33 1.25c-1.61 6.16-6.79 9.24-11.97 9.24s-10.36-3.08-11.97-9.24c-14.35-54.85-42.09-105.25-81-145.91 14.89 3.37 30.38 5.14 46.29 5.14 115.61 0 209.33-93.72 209.33-209.33 0-29.81-6.23-58.17-17.47-83.85 26.47 32.34 42.36 73.68 42.36 118.73z" fill="#e01152"/></g><circle cx="256" cy="186.1" fill="#f9f8f2" r="140.294"/><path d="m396.29 186.1c0 75.61-59.82 137.26-134.72 140.18 52.73-31.1 88.11-88.49 88.11-154.14 0-44.83-16.5-85.81-43.76-117.19 52.83 20.13 90.37 71.25 90.37 131.15z" fill="#f1eee0"/><path d="m115.71 186.1c0 9.73.992 19.228 2.879 28.399 3.593 17.46 25.321 23.773 37.926 11.168 5.364-5.364 7.634-13.061 6.116-20.494-1.259-6.164-1.921-12.542-1.921-19.073 0-44.913 31.22-82.66 73.102-92.682 10.152-2.429 17.339-11.459 17.339-21.897 0-14.615-13.689-25.255-27.904-21.856-61.68 14.75-107.537 70.234-107.537 136.435z" fill="#fff"/></g><g><g><path d="m119.403 153.992c12.791-54.624 57.501-96.96 113.384-106.265 11.054-1.841 19.176-11.365 19.176-22.571 0-14.148-12.718-24.935-26.668-22.573-73.57 12.457-133.485 68.758-151.365 140.484-3.681 14.768 7.47 29.075 22.69 29.075 10.897 0 20.299-7.54 22.783-18.15z" fill="#fc709b"/></g></g><g><g><path d="m148.982 95.445c14.548-17.152 33.144-30.762 54.317-39.352 11.562-4.691 17.108-17.907 12.614-29.547-4.541-11.763-17.855-17.586-29.53-12.822-27.968 11.413-52.7 29.439-72.201 52.062-8.071 9.363-6.84 23.728 2.524 31.796.118.102.236.203.354.305 9.477 8.157 23.834 7.094 31.922-2.442z" fill="#f7a6c1"/></g></g><path d="m307.65 316.58c-15.98 6.33-33.41 9.81-51.65 9.81-77.48 0-140.29-62.81-140.29-140.29 0-18.24 3.48-35.67 9.81-51.65z" fill="#29e088"/><path d="m361.34 93.45-87.709 87.709c-3.905 3.905-10.237 3.905-14.142 0l-98.389-98.379c24.98-22.96 58.3-36.97 94.9-36.97 41.97 0 79.63 18.43 105.34 47.64z" fill="#73e1ff"/><path d="m392.43 153.25-72.199 72.199c-3.905 3.905-10.237 3.905-14.142 0l-11.938-11.938c-3.905-3.905-3.905-10.237 0-14.142l83.379-83.379c6.65 11.49 11.71 24.01 14.9 37.26z" fill="#ffc751"/><path d="m395.99 195.37c-2.11 32.36-15.19 61.72-35.57 84.41l-17.349-17.349c-3.905-3.905-3.905-10.237 0-14.142z" fill="#0cc166"/><path d="m163.09 209.74c0 5.92-2.31 11.66-6.57 15.93-12.61 12.6-34.34 6.29-37.93-11.17-1.89-9.17-2.88-18.67-2.88-28.4 0-18.24 3.48-35.66 9.82-51.64l36.4 36.4c-.8 4.96-1.22 10.05-1.22 15.24 0 6.53.66 12.91 1.92 19.07.31 1.52.46 3.05.46 4.57z" fill="#79ff79"/><path d="m251.15 71.52c0 10.44-7.19 19.47-17.34 21.9-15.38 3.68-29.33 11.1-40.81 21.25l-31.89-31.88c17.28-15.89 38.55-27.49 62.14-33.13 1.8-.43 3.6-.64 5.36-.64 12.1 0 22.54 9.73 22.54 22.5z" fill="#b6f0ff"/><path d="m307.65 316.58c-14.35 5.68-29.86 9.07-46.08 9.7 11.51-6.79 22.19-14.83 31.86-23.92z" fill="#0cc166"/><path d="m361.34 93.45-21.13 21.13c-7.52-22.14-19.27-42.33-34.28-59.61 21.51 8.18 40.47 21.51 55.41 38.48z" fill="#5cceff"/><path d="m347.84 197.84c1.22-8.39 1.84-16.97 1.84-25.7 0-8.96-.66-17.76-1.93-26.37l29.78-29.78c6.65 11.49 11.71 24.01 14.9 37.26z" fill="#ffaf40"/></g></svg>